<svg width="10" height="16" viewBox="0 0 10 16" fill="none" xmlns="http://www.w3.org/2000/svg">
<path fill-rule="evenodd" clip-rule="evenodd" d="M0.293154 5.85018C0.105448 5.67437 -2.15758e-07 5.43596 -2.04891e-07 5.18736C-1.94025e-07 4.93877 0.105448 4.70035 0.293154 4.52454L4.29816 0.774491C4.48592 0.598734 4.74055 0.5 5.00604 0.5C5.27154 0.5 5.52617 0.598734 5.71393 0.774491L9.71894 4.52454C9.90132 4.70136 10.0022 4.93818 9.99996 5.18399C9.99768 5.4298 9.89238 5.66494 9.70674 5.83876C9.5211 6.01259 9.26997 6.11118 9.00745 6.11332C8.74492 6.11546 8.492 6.02096 8.30317 5.85018L6.0073 3.70047L6.0073 14.5625C6.0073 14.8111 5.90181 15.0496 5.71404 15.2254C5.52626 15.4012 5.27159 15.5 5.00604 15.5C4.7405 15.5 4.48582 15.4012 4.29805 15.2254C4.11028 15.0496 4.00479 14.8111 4.00479 14.5625L4.00479 3.70047L1.70892 5.85018C1.52116 6.02594 1.26653 6.12467 1.00104 6.12467C0.735542 6.12467 0.480916 6.02594 0.293154 5.85018Z" fill="#616D8D"/>
</svg>
